<?xml version="1.0" encoding="iso-8859-1"?>
<!-- Generator: Adobe Illustrator 19.0.0, SVG Export Plug-In . SVG Version: 6.00 Build 0)  -->
<svg version="1.1" id="Capa_1" xmlns="http://www.w3.org/2000/svg" xmlns:xlink="http://www.w3.org/1999/xlink" x="0px" y="0px"
	 viewBox="0 0 512.002 512.002" style="enable-background:new 0 0 512.002 512.002;" xml:space="preserve">
<g>
	<g>
		<path d="M466.098,321.896c0.048-0.578,0.071-1.155,0.103-1.733c27.069-5.825,45.801-29.862,45.801-57.544
			c0-15.995-6.254-30.871-17.226-41.927c13.669-29.611,0.853-64.881-28.677-78.791c2.718-32.5-21.391-61.262-53.896-64.233
			c-8.561-31.462-41.047-50.253-72.616-41.925c-19.289-27.325-56.61-32.77-84.371-14.418
			c-26.719-18.719-63.852-12.399-82.784,14.418c-31.537-8.319-64.047,10.43-72.616,41.925c-32.479,2.97-56.615,31.704-53.896,64.232
			c-29.501,13.896-42.359,49.151-28.677,78.791c-20.803,20.962-23.026,54.087-5.33,77.793c8.36,11.198,20.54,18.789,33.903,21.665
			c0.032,0.582,0.055,1.164,0.103,1.746c-29.501,13.896-42.359,49.151-28.677,78.791c-20.811,20.97-23.025,54.104-5.318,77.808
			c14.217,19.03,39.064,27.291,61.792,20.672c116.766-33.999,243.435-34.519,360.975-1.04c21.186,6.034,44.238-0.779,58.73-17.358
			c8.948-10.236,18.579-26.542,18.579-38.156c0-15.995-6.254-30.871-17.226-41.927C508.443,371.079,495.63,335.806,466.098,321.896z
			 M35.952,280.539c-10.313-13.815-7.078-34.013,8.727-43.516c7.809-4.695,9.654-15.218,3.932-22.289
			c-14.363-17.752-4.868-43.747,17.506-48.104c8.943-1.741,14.276-10.999,11.317-19.601c-7.428-21.592,10.393-42.773,32.904-39.214
			c9.001,1.422,17.178-5.454,17.339-14.55c0.406-22.83,24.392-36.638,44.333-25.594c7.97,4.415,18.006,0.751,21.269-7.742
			c8.186-21.308,35.449-26.091,50.414-8.89c5.98,6.874,16.662,6.864,22.632,0c13.402-15.404,43.323-14.777,52.414,8.889
			c3.268,8.506,13.31,12.151,21.269,7.743c19.975-11.065,43.928,2.806,44.333,25.594c0.162,9.112,8.353,15.969,17.339,14.55
			c22.552-3.567,40.318,17.662,32.904,39.214c-2.964,8.616,2.387,17.864,11.317,19.602c22.411,4.364,31.845,30.38,17.506,48.104
			c-5.731,7.083-3.864,17.601,3.932,22.289c9.182,5.521,14.664,15.09,14.664,25.596c0,13.118-8.486,25.163-21.777,28.164
			c-2.1-4.264-4.729-8.321-7.882-12.078c-10.281-12.251-24.633-19.624-40.143-21.042c-8.562-31.463-41.047-50.253-72.616-41.925
			c-19.289-27.325-56.61-32.77-84.371-14.418c-26.726-18.725-63.857-12.392-82.784,14.418c-31.54-8.32-64.048,10.432-72.616,41.925
			c-21.337,1.951-39.103,15.007-48.025,33.121C45.548,289.375,39.869,285.785,35.952,280.539z M470.836,461.026
			c-6.889,7.881-17.849,11.12-27.926,8.25c-61.17-17.422-124.659-25.983-188.859-25.781c-64.164,0.183-127.659,9.091-188.72,26.87
			c-10.826,3.151-22.628-0.796-29.372-9.823c-10.343-13.846-7.055-34.037,8.721-43.524c7.809-4.695,9.654-15.217,3.932-22.289
			c-6.74-8.331-8.619-19.197-5.025-29.069c3.592-9.871,12.016-16.987,22.531-19.034c8.943-1.741,14.276-10.999,11.317-19.602
			c-6.804-19.778,7.643-39.602,28.001-39.602c4.92,0,10.624,2.317,16.885-2.938c3.325-2.79,5.278-6.884,5.355-11.224
			c0.406-22.829,24.392-36.639,44.333-25.594c7.971,4.414,18.006,0.751,21.269-7.742c8.186-21.308,35.449-26.091,50.414-8.89
			c5.981,6.874,16.662,6.864,22.632,0c13.4-15.401,43.32-14.784,52.414,8.889c3.268,8.506,13.31,12.151,21.269,7.743
			c19.974-11.064,43.928,2.805,44.333,25.594c0.162,9.111,8.353,15.971,17.339,14.55c22.553-3.565,40.318,17.661,32.904,39.214
			c-2.964,8.616,2.387,17.863,11.317,19.602c22.412,4.365,31.844,30.381,17.506,48.103c-5.73,7.083-3.864,17.601,3.932,22.289
			c9.051,5.442,14.506,14.817,14.66,25.146C481.459,444.713,477.744,453.123,470.836,461.026z"/>
	</g>
</g>
<g>
	<g>
		<path d="M388.992,328.569c-31.22-41.504-79.645-65.95-132.983-65.95c-53.414,0-101.807,24.509-132.983,65.949
			c-4.98,6.62-3.65,16.023,2.97,21.004c6.619,4.979,16.023,3.651,21.003-2.97c25.058-33.314,64.388-54.383,109.01-54.383
			c44.625,0,83.954,21.073,109.01,54.383c4.984,6.626,14.39,7.946,21.003,2.97C392.641,344.593,393.971,335.189,388.992,328.569z"/>
	</g>
</g>
<g>
	<g>
		<path d="M388.992,148.573c-31.22-41.504-79.645-65.949-132.983-65.949c-53.414,0-101.807,24.509-132.983,65.949
			c-4.98,6.62-3.65,16.023,2.97,21.003c6.619,4.979,16.023,3.651,21.003-2.97c25.057-33.313,64.388-54.384,109.01-54.384
			c44.707,0,84.005,21.141,109.01,54.384c4.982,6.623,14.386,7.949,21.003,2.97C392.641,164.597,393.971,155.193,388.992,148.573z"
			/>
	</g>
</g>
<g>
</g>
<g>
</g>
<g>
</g>
<g>
</g>
<g>
</g>
<g>
</g>
<g>
</g>
<g>
</g>
<g>
</g>
<g>
</g>
<g>
</g>
<g>
</g>
<g>
</g>
<g>
</g>
<g>
</g>
</svg>
