<svg id="icons" enable-background="new 0 0 64 64" height="512" viewBox="0 0 64 64" width="512" xmlns="http://www.w3.org/2000/svg"><path d="m58.504 22.002c-.13 0-.26.026-.382.077-.123.051-.234.124-.326.217l-.706.706h-15.594v-3.998c0-.553-.447-1-1-1h-9.992v-14.996c0-1.645-1.328-2.981-2.967-3.006-.008 0-.014-.004-.021-.004-.004 0-.007.001-.011.001s-.007-.001-.011-.001c-.008 0-.014.004-.021.004-1.641.024-2.969 1.361-2.969 3.006v14.996h-12.002c-6.053 0-10.977 4.913-10.998 10.959-.001.014-.008.025-.008.039 0 .553.447 1 1 1h22.008v10.012h-3.5c-1.379 0-2.5 1.121-2.5 2.5s1.121 2.5 2.5 2.5h.5c1.103 0 2 .897 2 2v13c0 .004.002.006.002.01.011 2.195 1.799 3.979 3.998 3.979 2.19 0 3.973-1.773 3.994-3.959 0-.011.006-.019.006-.029v-13c0-1.103.897-2 2-2h.5c1.379 0 2.5-1.121 2.5-2.5s-1.121-2.5-2.5-2.5h-3.5v-10.013h27.994c.001 0 .002-.001.003-.001s.002.001.003.001c2.206 0 4-1.794 4-4s-1.794-4-4-4zm-30.999-20.002c.55.007.996.453.998 1.004h-1.998c.002-.551.449-.997 1-1.004zm-1.001 3.004h2v13h-2zm-14.002 15h26.994v7.998h-35.935c.5-4.492 4.317-7.998 8.941-7.998zm21.502 22.01c.275 0 .5.225.5.5s-.225.5-.5.5h-13c-.275 0-.5-.225-.5-.5s.225-.5.5-.5zm-4.5 5v12.98c0 .004-.002.006-.002.01 0 1.102-.896 1.998-1.998 1.998-1.103 0-2-.896-2-1.998v-12.99c0-.731-.212-1.409-.557-2h5.113c-.344.59-.556 1.268-.556 2zm-3-7v-2.008h2v2.008zm2-4.008h-2v-6.004h2zm30-8.004c-.001 0-.002.001-.003.001s-.002-.001-.003-.001h-17.002v-3h16.008c.13 0 .26-.026.382-.077.123-.051.234-.124.326-.217l.668-.668c.923.177 1.624.988 1.624 1.962 0 1.102-.898 2-2 2z"/><path d="m45.54 25.494h-.011c-.552 0-.994.447-.994 1s.452 1 1.005 1c.552 0 1-.447 1-1s-.448-1-1-1z"/><path d="m50.54 25.494h-.011c-.552 0-.994.447-.994 1s.452 1 1.005 1c.552 0 1-.447 1-1s-.448-1-1-1z"/><path d="m55.538 25.494h-.011c-.552 0-.994.447-.994 1s.452 1 1.005 1c.552 0 1-.447 1-1s-.448-1-1-1z"/><path d="m33.211 16.711 2-2c.391-.391.391-1.023 0-1.414s-1.023-.391-1.414 0l-2 2c-.391.391-.391 1.023 0 1.414.195.195.451.293.707.293s.512-.098.707-.293z"/><path d="m22.504 17.004c.256 0 .512-.098.707-.293.391-.391.391-1.023 0-1.414l-2-2c-.391-.391-1.023-.391-1.414 0s-.391 1.023 0 1.414l2 2c.195.195.451.293.707.293z"/><path d="m31.797 31.297c-.391.391-.391 1.023 0 1.414l2 2c.195.195.451.293.707.293s.512-.098.707-.293c.391-.391.391-1.023 0-1.414l-2-2c-.391-.391-1.023-.391-1.414 0z"/><path d="m21.211 34.711 2-2c.391-.391.391-1.023 0-1.414s-1.023-.391-1.414 0l-2 2c-.391.391-.391 1.023 0 1.414.195.195.451.293.707.293s.512-.098.707-.293z"/></svg>