<?xml version="1.0" standalone="no"?>
<!DOCTYPE svg PUBLIC "-//W3C//DTD SVG 20010904//EN"
 "http://www.w3.org/TR/2001/REC-SVG-20010904/DTD/svg10.dtd">
<svg version="1.0" xmlns="http://www.w3.org/2000/svg"
 width="949.000000pt" height="859.000000pt" viewBox="0 0 949.000000 859.000000"
 preserveAspectRatio="xMidYMid meet">

<g transform="translate(0.000000,859.000000) scale(0.100000,-0.100000)"
fill="#000000" stroke="none">
<path d="M263 8364 c-2 -6 1 -23 7 -38 5 -15 10 -38 10 -51 0 -14 9 -44 19
-67 11 -24 30 -78 42 -120 13 -43 27 -78 31 -78 4 0 5 -6 2 -14 -3 -8 -1 -17
5 -21 6 -3 11 -13 11 -21 0 -8 7 -31 16 -52 10 -20 18 -44 20 -53 14 -67 212
-471 227 -462 6 4 7 1 2 -6 -4 -8 5 -28 24 -51 17 -21 31 -43 31 -49 0 -15 47
-81 53 -75 3 3 8 -5 12 -17 4 -13 19 -32 32 -42 15 -12 22 -25 18 -35 -3 -9
-3 -13 1 -10 7 7 57 -54 82 -99 7 -13 22 -29 33 -36 10 -6 19 -17 19 -23 0
-14 35 -46 42 -39 3 3 11 -1 18 -10 7 -9 8 -15 2 -15 -6 0 -13 6 -15 13 -3 7
-6 7 -6 1 -1 -6 10 -23 23 -37 13 -14 21 -29 18 -32 -4 -3 2 -3 12 1 13 5 17
4 12 -4 -10 -16 35 -27 46 -11 7 11 8 9 4 -4 -4 -12 4 -32 24 -57 16 -20 26
-41 22 -45 -4 -4 3 -4 16 -1 14 5 22 3 22 -4 0 -6 -4 -8 -10 -5 -5 3 -10 2
-10 -3 0 -9 35 -40 79 -72 12 -8 21 -21 21 -29 0 -8 3 -11 6 -8 4 4 14 -1 23
-11 9 -10 23 -21 32 -24 9 -4 23 -21 32 -40 9 -18 25 -39 36 -46 25 -15 28 -4
4 14 -10 7 -13 14 -7 14 7 0 27 -20 45 -45 19 -24 40 -45 47 -45 7 0 11 -4 8
-8 -3 -5 13 -19 35 -31 21 -12 37 -25 35 -29 -2 -4 3 -14 12 -22 14 -13 15
-12 9 5 -5 13 1 10 17 -10 14 -16 25 -36 26 -42 0 -7 5 -13 11 -13 5 0 7 6 3
13 -4 6 7 -3 25 -22 17 -19 31 -37 31 -40 0 -3 11 -11 25 -18 19 -8 23 -8 18
0 -4 7 9 -4 28 -23 19 -20 38 -43 42 -53 3 -9 19 -22 34 -28 34 -13 64 -39 58
-49 -3 -4 9 -10 25 -14 18 -3 30 -12 30 -21 0 -9 16 -25 35 -36 22 -13 35 -29
35 -41 0 -17 3 -18 15 -8 12 10 15 10 15 -2 0 -19 52 -66 68 -60 7 2 12 -3 12
-12 0 -9 7 -16 15 -16 8 0 15 -7 15 -15 0 -8 9 -19 20 -25 11 -6 17 -16 14
-22 -5 -8 -1 -9 10 -5 12 5 26 -4 48 -29 18 -20 42 -40 55 -45 13 -5 27 -19
32 -31 5 -13 24 -34 42 -48 18 -14 43 -35 55 -47 12 -13 25 -23 31 -23 5 0 28
-18 53 -40 24 -21 47 -37 51 -34 4 2 16 -7 27 -21 11 -14 25 -25 31 -25 5 0
15 -9 21 -20 6 -11 16 -20 24 -20 7 0 30 -13 52 -30 21 -16 44 -30 50 -30 6 0
22 -12 37 -27 48 -52 57 -57 57 -32 l0 22 23 -21 c13 -12 29 -22 35 -22 7 0
12 -4 12 -10 0 -5 6 -10 13 -10 7 0 23 -9 35 -20 12 -12 22 -18 22 -14 0 4 9
-1 21 -12 13 -12 32 -17 55 -15 29 2 34 -1 34 -18 0 -22 33 -30 45 -11 4 6 15
6 30 0 20 -8 27 -6 37 10 7 11 21 20 31 20 16 0 16 2 -3 22 -24 26 -25 37 -5
45 21 8 33 -6 15 -17 -8 -5 -11 -13 -6 -17 5 -4 11 -2 13 5 3 6 13 12 24 12
24 0 25 17 2 23 -10 3 -3 5 15 6 21 1 32 6 32 15 0 17 43 66 57 66 6 0 13 14
17 31 8 43 8 51 -4 44 -5 -3 -10 -1 -10 5 0 7 16 11 43 9 71 -4 89 0 94 21 3
11 12 20 19 20 18 0 18 16 0 32 -11 10 -8 17 16 40 31 29 52 35 63 18 8 -13
35 -13 35 -1 0 5 -15 13 -32 17 -33 7 -33 7 -8 16 20 7 22 11 10 18 -21 13 -1
31 50 46 41 12 48 9 107 -41 44 -38 89 -71 118 -86 31 -17 34 -17 28 -2 -5 12
-2 15 10 10 22 -8 21 -1 -3 30 -12 15 -20 20 -20 12 0 -11 -2 -11 -10 1 -12
19 -13 33 -1 26 4 -3 8 8 7 24 -1 20 -5 29 -14 25 -7 -3 -10 -1 -7 4 3 5 1 13
-5 16 -6 4 -8 15 -5 26 4 12 1 21 -9 25 -9 4 -16 11 -15 18 3 25 -2 36 -16 36
-18 0 -20 -16 -2 -23 7 -3 5 -6 -5 -6 -10 -1 -18 3 -18 8 0 5 -8 11 -17 13
-14 3 -12 8 12 22 17 9 22 15 12 12 -10 -3 -22 -6 -26 -6 -4 0 -18 -9 -31 -20
-29 -25 -45 -25 -70 0 -32 32 -37 70 -12 91 12 9 22 23 22 31 0 10 2 10 10 -2
6 -10 9 -6 8 17 -1 18 -4 32 -7 31 -15 -3 -41 15 -41 28 0 8 -11 20 -25 26
-18 8 -24 17 -19 30 5 18 1 18 -43 1 -10 -3 -20 -7 -23 -7 -3 -1 -22 -11 -42
-24 -42 -26 -66 -20 -94 23 -15 23 -15 27 0 50 9 13 25 29 36 35 11 6 20 17
20 26 0 8 10 19 23 24 l22 9 -23 0 c-13 1 -20 5 -17 11 3 6 2 10 -3 10 -5 0
-14 11 -21 23 -7 13 -28 30 -48 38 -28 11 -31 14 -16 20 13 6 10 8 -14 8 -37
1 -83 -17 -83 -33 0 -10 -65 -36 -89 -36 -15 0 -51 42 -51 59 0 18 80 101 98
101 6 0 12 7 12 16 0 11 -5 14 -17 10 -10 -4 -15 -4 -11 -1 3 3 -5 17 -19 31
-13 13 -21 28 -18 34 3 5 -6 12 -20 16 -14 3 -25 10 -25 15 0 5 -14 9 -31 9
-30 0 -71 -18 -118 -52 -13 -10 -34 -18 -47 -18 -24 0 -54 33 -54 60 0 17 42
60 59 60 6 0 11 7 11 15 0 9 7 18 15 21 20 8 19 21 -6 52 -29 38 -100 82 -129
81 -14 0 -38 -9 -55 -20 -16 -10 -41 -24 -55 -31 -14 -7 -28 -17 -31 -22 -12
-16 -39 3 -53 36 -14 32 -13 33 27 74 23 22 50 45 60 50 17 10 17 11 0 27 -19
17 -70 62 -98 86 -21 17 -60 9 -131 -24 -29 -14 -62 -25 -73 -25 -21 0 -51 35
-51 59 0 15 66 81 80 81 4 0 13 6 19 14 9 11 2 21 -36 48 -26 19 -64 43 -83
54 -19 10 -37 21 -40 24 -5 5 -18 13 -89 52 -20 11 -43 26 -51 32 -8 7 -31 19
-50 26 -19 8 -41 20 -48 27 -7 7 -21 13 -30 13 -23 1 -153 72 -155 85 -2 19
-83 69 -97 60 -6 -4 -10 -2 -10 4 0 5 -10 13 -22 17 -13 3 -35 15 -50 26 -16
11 -28 17 -28 14 0 -4 -18 6 -40 20 -22 15 -37 31 -34 35 3 5 0 8 -7 7 -7 -2
-13 3 -14 11 0 8 -7 16 -15 18 -13 4 -13 3 0 -6 21 -15 -2 -14 -37 2 -15 6
-37 20 -48 29 -11 10 -29 24 -40 33 l-20 15 20 -6 c16 -5 17 -4 5 5 -9 6 -18
7 -24 1 -15 -15 -26 -12 -26 5 0 8 -4 15 -9 15 -13 0 -80 43 -81 52 0 4 7 4
17 1 11 -4 14 -3 9 6 -4 6 -16 9 -26 6 -21 -7 -85 49 -75 65 3 6 -1 7 -9 4
-10 -4 -18 1 -22 10 -4 9 -28 26 -55 37 -27 12 -46 25 -43 30 3 5 0 9 -6 9 -6
0 -36 16 -66 35 -30 20 -60 32 -66 29 -6 -4 -8 -3 -5 3 6 10 -101 80 -115 75
-4 -1 -8 3 -8 8 0 14 -61 50 -73 43 -6 -3 -7 -1 -3 5 4 7 -12 21 -41 37 -26
13 -66 36 -88 50 -48 30 -82 45 -100 45 -8 0 -17 5 -21 12 -5 7 -3 8 6 3 9 -6
11 -4 5 4 -4 7 -16 11 -26 8 -11 -3 -17 -2 -15 2 3 4 -8 15 -25 25 -16 9 -29
14 -29 10 0 -4 -7 1 -16 12 -8 10 -12 12 -8 4 4 -9 -3 -6 -17 6 -29 26 -83 54
-103 54 -8 0 -19 6 -23 13 -10 15 -74 16 -80 1z m562 -274 c3 -5 2 -10 -4 -10
-5 0 -13 5 -16 10 -3 6 -2 10 4 10 5 0 13 -4 16 -10z m185 -140 c0 -5 -4 -10
-9 -10 -6 0 -13 5 -16 10 -3 6 1 10 9 10 9 0 16 -4 16 -10z m201 -116 c9 -8
18 -12 20 -10 2 2 15 -8 29 -21 22 -22 16 -20 -47 12 -40 20 -73 39 -73 42 0
9 54 -8 71 -23z m771 -659 c214 -184 248 -226 234 -298 -8 -44 -84 -125 -124
-133 -60 -12 -96 3 -185 79 -47 41 -115 98 -152 127 -86 70 -109 107 -103 165
3 24 12 51 21 59 8 9 24 27 35 41 32 40 71 57 124 52 42 -4 57 -13 150 -92z
m1678 -1195 c0 -5 -4 -10 -10 -10 -5 0 -10 5 -10 10 0 6 5 10 10 10 6 0 10 -4
10 -10z m57 -346 c-3 -3 -12 -4 -19 -1 -8 3 -5 6 6 6 11 1 17 -2 13 -5z m-212
-183 c7 -12 -12 -24 -25 -16 -11 7 -4 25 10 25 5 0 11 -4 15 -9z m39 3 c23 -9
20 -24 -4 -24 -11 0 -20 7 -20 15 0 17 2 18 24 9z m-24 -44 c0 -5 -4 -10 -10
-10 -5 0 -10 5 -10 10 0 6 5 10 10 10 6 0 10 -4 10 -10z"/>
<path d="M1725 7505 c16 -13 32 -22 34 -19 7 6 -40 44 -54 43 -5 0 3 -11 20
-24z"/>
<path d="M796 7137 c3 -10 9 -15 12 -12 3 3 0 11 -7 18 -10 9 -11 8 -5 -6z"/>
<path d="M3600 5474 c0 -8 5 -12 10 -9 6 3 10 10 10 16 0 5 -4 9 -10 9 -5 0
-10 -7 -10 -16z"/>
<path d="M3310 5170 c0 -5 5 -10 10 -10 6 0 10 5 10 10 0 6 -4 10 -10 10 -5 0
-10 -4 -10 -10z"/>
<path d="M6617 4837 c-10 -26 -194 -266 -280 -366 -124 -142 -366 -381 -386
-381 -19 0 -93 -76 -171 -175 -59 -76 -238 -282 -248 -287 -4 -2 -23 -23 -42
-48 -48 -61 -69 -87 -110 -131 -51 -54 -100 -116 -100 -126 0 -5 -15 -16 -33
-26 -37 -20 -61 -52 -51 -68 4 -8 9 -7 15 2 7 11 9 9 9 -5 0 -20 -11 -32 -310
-345 -102 -106 -192 -204 -200 -218 -14 -23 -13 -26 20 -56 61 -55 113 -97
120 -97 11 0 377 375 527 540 50 54 53 53 168 -47 118 -102 125 -108 182 -156
29 -23 72 -57 96 -74 41 -30 45 -31 71 -17 34 17 37 17 34 2 -2 -7 7 -14 20
-16 16 -2 22 -10 22 -28 0 -13 4 -24 9 -24 6 0 7 -15 4 -33 -4 -28 -1 -37 21
-54 14 -11 53 -45 88 -76 35 -30 97 -83 138 -116 l74 -61 68 0 68 0 1 -32 c1
-18 3 -40 4 -48 1 -8 3 -24 4 -36 0 -11 19 -34 40 -50 21 -16 78 -63 126 -104
163 -140 163 -139 231 -140 l61 0 12 -69 c10 -55 18 -72 39 -88 15 -11 68 -55
117 -98 129 -111 152 -124 224 -127 59 -2 61 -3 61 -30 0 -15 5 -28 11 -28 6
0 8 -8 4 -19 -10 -32 4 -65 38 -88 18 -13 50 -40 72 -61 22 -21 60 -54 85 -72
25 -19 54 -43 65 -53 27 -25 71 -47 103 -52 47 -7 87 -21 88 -31 4 -54 20 -93
49 -119 105 -96 127 -115 131 -115 3 0 11 -6 18 -12 12 -11 12 -16 -1 -30 -15
-16 -15 -18 0 -18 10 0 34 -17 55 -37 33 -34 127 -120 203 -185 14 -13 60 -54
103 -93 43 -38 90 -81 104 -94 15 -13 54 -42 87 -64 33 -23 66 -47 73 -53 7
-7 32 -16 56 -19 38 -6 55 -2 111 24 36 17 71 28 77 25 6 -4 8 -3 4 4 -3 6 -2
13 4 17 5 3 10 1 10 -4 0 -14 39 18 131 109 87 86 121 132 114 152 -6 15 21
80 61 143 13 22 30 51 37 65 6 14 14 27 18 30 3 3 16 25 29 50 12 25 29 53 37
62 27 31 6 67 -95 164 -53 52 -101 94 -106 94 -5 0 -30 19 -56 43 -26 23 -81
72 -121 108 -174 156 -249 220 -250 212 0 -4 -5 3 -10 17 -10 24 -11 24 -25 6
-14 -19 -14 -19 -36 1 -13 11 -45 40 -72 64 -28 24 -61 56 -75 71 -14 16 -33
28 -43 28 -9 0 -20 5 -24 11 -4 8 -9 8 -13 1 -4 -6 -19 -13 -34 -16 -21 -4
-27 -1 -27 14 0 36 -18 29 -49 -18 -17 -26 -31 -40 -31 -31 0 9 11 32 24 52
48 71 45 85 -36 164 -154 152 -237 223 -263 225 -11 1 -41 0 -66 -1 -40 -2
-47 0 -52 19 -8 30 -28 21 -54 -26 -18 -31 -23 -35 -23 -17 0 12 5 25 10 28
15 9 50 81 50 103 0 19 -134 154 -225 227 -28 22 -53 45 -57 51 -7 10 -58 11
-112 2 -10 -2 -23 6 -30 17 -6 11 -12 22 -13 24 -5 9 -37 -26 -49 -54 -8 -18
-13 -23 -14 -13 0 10 14 39 30 65 17 26 30 54 30 64 0 22 -82 105 -200 204
-52 43 -101 87 -108 96 -9 14 -23 17 -57 14 -25 -2 -54 -6 -65 -10 -17 -5 -21
-1 -26 25 -6 29 -8 30 -25 14 -22 -20 -24 -9 -4 26 31 54 15 76 -165 231 -41
35 -87 77 -101 93 -23 26 -30 28 -82 25 -31 -2 -57 -1 -57 3 0 4 -7 14 -16 23
-12 12 -19 13 -30 5 -10 -9 -9 -2 3 28 14 36 14 42 0 62 -14 20 -172 162 -240
215 -52 42 -157 145 -157 156 0 6 65 77 144 158 144 147 219 230 377 422 142
172 194 253 171 268 -5 3 -12 16 -16 29 -4 13 -15 22 -26 22 -11 0 -27 11 -36
24 -9 15 -21 22 -30 19 -14 -5 -20 12 -6 20 4 2 2 2 -5 1 -7 -2 -15 1 -18 6
-9 14 -22 12 -28 -3z m-163 -1469 c-33 -55 -154 -205 -154 -191 0 10 149 203
156 203 3 0 2 -6 -2 -12z m442 -425 c-8 -15 -15 -22 -16 -15 0 17 20 55 27 49
2 -3 -2 -18 -11 -34z m-82 -101 c3 -5 -11 -24 -31 -43 l-36 -34 28 43 c30 45
31 46 39 34z m926 -796 c0 -7 -12 -21 -26 -31 -27 -18 -26 -7 4 28 18 21 22
21 22 3z m472 -413 c-11 -16 -32 -39 -48 -53 -21 -20 -19 -14 12 28 21 28 42
52 47 52 5 0 -1 -12 -11 -27z"/>
<path d="M6433 4693 c-121 -118 -287 -318 -352 -425 -99 -164 285 243 422 447
56 82 30 74 -70 -22z"/>
</g>
</svg>
